<?xml version="1.0" ?><svg height="24" id="svg4647" version="1.1" viewBox="0 0 6.3499999 6.3500002" width="24" xmlns="http://www.w3.org/2000/svg" xmlns:cc="http://creativecommons.org/ns#" xmlns:dc="http://purl.org/dc/elements/1.1/" xmlns:inkscape="http://www.inkscape.org/namespaces/inkscape" xmlns:rdf="http://www.w3.org/1999/02/22-rdf-syntax-ns#" xmlns:sodipodi="http://sodipodi.sourceforge.net/DTD/sodipodi-0.dtd" xmlns:svg="http://www.w3.org/2000/svg"><defs id="defs4641"/><g id="layer1" transform="translate(0,-290.64999)"><path d="M 1.058333,234.10475 C 0.47201702,234.10475 2.4999999e-8,234.57677 2.4999999e-8,235.16308 v 4.23334 c 0,0.58631 0.472016995000001,1.05833 1.058332975000001,1.05833 h 4.233334 c 0.586317,0 1.058333,-0.47202 1.058333,-1.05833 v -4.23334 c 0,-0.58631 -0.472016,-1.05833 -1.058333,-1.05833 z m 0.794267,1.05833 h 2.644283 c 0.435161,0 0.795301,0.35808 0.795301,0.79324 v 2.64635 c 0,0.43516 -0.36014,0.79271 -0.795301,0.79271 H 1.8526 c -0.435161,0 -0.794783,-0.35755 -0.794783,-0.79271 v -2.64635 c 0,-0.43516 0.359622,-0.79324 0.794783,-0.79324 z m 0,0.52969 c -0.151155,0 -0.265617,0.11239 -0.265617,0.26355 v 2.64635 c 0,0.15115 0.114462,0.26355 0.265617,0.26355 h 2.644283 c 0.151156,0 0.266134,-0.1124 0.266134,-0.26355 v -2.64635 c 0,-0.15116 -0.114978,-0.26355 -0.266134,-0.26355 z m 2.380734,0.26406 a 0.26458334,0.26458334 0 0 1 0.264583,0.26459 0.26458334,0.26458334 0 0 1 -0.264583,0.26458 0.26458334,0.26458334 0 0 1 -0.264584,-0.26458 0.26458334,0.26458334 0 0 1 0.264584,-0.26459 z M 3.175,236.22193 c 0.581368,0 1.058334,0.47697 1.058334,1.05834 0,0.58136 -0.476966,1.05885 -1.058334,1.05885 -0.581367,0 -1.05885,-0.47749 -1.05885,-1.05885 0,-0.58137 0.477483,-1.05834 1.05885,-1.05834 z m 0,0.52917 c -0.295384,0 -0.529683,0.23378 -0.529683,0.52917 0,0.29538 0.234299,0.52968 0.529683,0.52968 0.295385,0 0.529167,-0.2343 0.529167,-0.52968 0,-0.29539 -0.233782,-0.52917 -0.529167,-0.52917 z" id="rect4598" style="opacity:1;fill:#333333;fill-opacity:1;stroke:none;stroke-width:0.26458335;stroke-linecap:butt;stroke-linejoin:miter;stroke-miterlimit:4;stroke-dasharray:none;stroke-dashoffset:0;stroke-opacity:1"/><path d="M 1.0583333,290.64999 C 0.47201673,290.64999 1.4999998e-8,291.12201 1.4999998e-8,291.70832 v 4.23334 c 0,0.58631 0.472016715000002,1.05833 1.058333285000002,1.05833 h 4.2333334 c 0.5863167,0 1.0583333,-0.47202 1.0583333,-1.05833 v -4.23334 c 0,-0.58631 -0.4720166,-1.05833 -1.0583333,-1.05833 z M 3.175,291.84062 c 1.0930017,0 1.984375,0.89137 1.984375,1.98437 0,1.093 -0.8913733,1.98438 -1.984375,1.98438 -0.3037284,0 -0.5985113,-0.0795 -0.8702304,-0.21343 l -1.10381,0.20722 0.2036048,-1.10846 c -0.1339479,-0.27146 -0.2139394,-0.56647 -0.2139394,-0.86971 0,-1.093 0.8913733,-1.98437 1.984375,-1.98437 z m 0,0.49609 c -0.8248941,0 -1.4882812,0.66339 -1.4882812,1.48828 0,0.25428 0.065606,0.5039 0.1901692,0.72502 l 0.043408,0.078 -0.1012852,0.55449 0.5508705,-0.10335 0.078549,0.0444 c 0.2216467,0.12461 0.4719055,0.18965 0.7265696,0.18965 0.8248915,0 1.4882813,-0.66339 1.4882813,-1.48828 0,-0.82489 -0.6633898,-1.48828 -1.4882813,-1.48828 z m -0.593762,0.52865 c 0.041529,4.5e-4 0.071144,0.002 0.095083,0.006 0.023945,0.004 0.043416,0.0105 0.058396,0.0238 0.013626,0.012 0.022357,0.0286 0.029456,0.0475 0.021431,0.0567 0.082034,0.25969 0.1317731,0.38809 0.01524,0.0394 0.010213,0.0782 -0.00569,0.11163 -0.015902,0.0335 -0.040439,0.0631 -0.06563,0.0899 -0.025188,0.0269 -0.051356,0.0514 -0.069247,0.0729 -0.017939,0.0215 -0.0245,0.0387 -0.02376,0.0475 0.00106,0.0113 0.011483,0.041 0.031007,0.0739 0.019526,0.0329 0.04659,0.0704 0.07493,0.108 0.056684,0.0752 0.1215284,0.14996 0.1503786,0.17932 0.029353,0.0288 0.1020498,0.0932 0.1772496,0.14986 0.037605,0.0283 0.075065,0.0538 0.1080029,0.0734 0.032941,0.0195 0.063601,0.0321 0.074933,0.0331 0.00886,7.7e-4 0.026548,-0.008 0.048059,-0.0258 0.021511,-0.0179 0.044463,-0.0425 0.071313,-0.0677 0.026839,-0.0252 0.055949,-0.0503 0.0894,-0.0662 0.033454,-0.0159 0.0738,-0.0225 0.1131702,-0.007 0.1284076,0.0497 0.3318669,0.11033 0.3886068,0.13177 0.030181,0.0114 0.051141,0.0319 0.062013,0.0589 0.010821,0.027 0.012674,0.0575 0.014473,0.10077 0.00185,0.0457 -0.00286,0.11526 -0.050644,0.185 -0.047773,0.0697 -0.1365541,0.13887 -0.2950713,0.18811 -0.1653566,0.0514 -0.3745918,-0.009 -0.5730928,-0.10956 -0.1985036,-0.10058 -0.3866436,-0.24349 -0.5090133,-0.36587 -0.1223698,-0.12237 -0.2637394,-0.31102 -0.3643181,-0.50953 -0.1005919,-0.1985 -0.1609143,-0.40773 -0.1095533,-0.57309 0.046162,-0.14861 0.1076907,-0.23418 0.1720823,-0.2837 0.064389,-0.0495 0.1304899,-0.061 0.1756992,-0.0605 z" id="rect5228" style="opacity:1;fill:#333333;fill-opacity:1;stroke:none;stroke-width:0.26458335;stroke-linecap:butt;stroke-linejoin:miter;stroke-miterlimit:4;stroke-dasharray:none;stroke-dashoffset:0;stroke-opacity:1"/></g></svg>